HIERARCHY
ROOT hip
{
  OFFSET 0 90.174 2.4664
  CHANNELS 6 Xposition Yposition Zposition Zrotation Xrotation Yrotation
  JOINT abdomen
  {
    OFFSET 0 -1.186 -1.5018
    CHANNELS 6 Xposition Yposition Zposition Zrotation Xrotation Yrotation
    JOINT abdomen2
    {
      OFFSET 0 9.964 0.2134
      CHANNELS 6 Xposition Yposition Zposition Zrotation Xrotation Yrotation
      JOINT chest
      {
        OFFSET 0 13.134 -3.2573
        CHANNELS 6 Xposition Yposition Zposition Zrotation Xrotation Yrotation
        JOINT neck
        {
          OFFSET 0 20.686 -1.6905
          CHANNELS 6 Xposition Yposition Zposition Zrotation Xrotation Yrotation
          JOINT head
          {
            OFFSET 0 7.238 -0.1237
            CHANNELS 6 Xposition Yposition Zposition Zrotation Xrotation Yrotation
            End Site
            {
              OFFSET 0 0 0
            }
          }
        }
        JOINT lCollar
        {
          OFFSET 1.7069 20.075 5.0056
          CHANNELS 6 Xposition Yposition Zposition Zrotation Xrotation Yrotation
          JOINT lShldr
          {
            OFFSET 13.6458 -0.047 -4.849
            CHANNELS 6 Xposition Yposition Zposition Zrotation Xrotation Yrotation
            JOINT lForeArm
            {
              OFFSET 28.3255 -0.9759 2.2888
              CHANNELS 6 Xposition Yposition Zposition Zrotation Xrotation Yrotation
              JOINT lHand
              {
                OFFSET 22.1583 -0.53 10.8316
                CHANNELS 6 Xposition Yposition Zposition Zrotation Xrotation Yrotation
                JOINT lThumb1
                {
                  OFFSET 0.786 0.112 2.5817
                  CHANNELS 6 Xposition Yposition Zposition Zrotation Xrotation Yrotation
                  JOINT lThumb2
                  {
                    OFFSET 0.3601 -0.878 4.2331
                    CHANNELS 6 Xposition Yposition Zposition Zrotation Xrotation Yrotation
                    JOINT lThumb2_End
                    {
                      OFFSET 1.8127 -1.216 2.2227
                      CHANNELS 6 Xposition Yposition Zposition Zrotation Xrotation Yrotation
                      End Site
                      {
                        OFFSET 0.0181 -0.0122 0.0222
                      }
                    }
                  }
                }
                JOINT lCarpal1
                {
                  OFFSET 0.9571 1.114 1.7695
                  CHANNELS 6 Xposition Yposition Zposition Zrotation Xrotation Yrotation
                  JOINT lIndex1
                  {
                    OFFSET 4.1246 0.487 4.1451
                    CHANNELS 6 Xposition Yposition Zposition Zrotation Xrotation Yrotation
                    JOINT lIndex2
                    {
                      OFFSET 3.4052 -1.454 2.7682
                      CHANNELS 6 Xposition Yposition Zposition Zrotation Xrotation Yrotation
                      JOINT lIndex2_End
                      {
                        OFFSET 1.4531 -1.795 1.2713
                        CHANNELS 6 Xposition Yposition Zposition Zrotation Xrotation Yrotation
                        End Site
                        {
                          OFFSET 0.0145 -0.0179 0.0127
                        }
                      }
                    }
                  }
                  JOINT lMid1
                  {
                    OFFSET 5.6954 0.21 2.1184
                    CHANNELS 6 Xposition Yposition Zposition Zrotation Xrotation Yrotation
                    JOINT lMid2
                    {
                      OFFSET 3.9766 -1.54 2.3863
                      CHANNELS 6 Xposition Yposition Zposition Zrotation Xrotation Yrotation
                      JOINT lMid2_End
                      {
                        OFFSET 1.4042 -1.926 1.125
                        CHANNELS 6 Xposition Yposition Zposition Zrotation Xrotation Yrotation
                        End Site
                        {
                          OFFSET 0.014 -0.0193 0.0113
                        }
                      }
                    }
                  }
                }
                JOINT lCarpal2
                {
                  OFFSET 2.0956 0.66 -0.3894
                  CHANNELS 6 Xposition Yposition Zposition Zrotation Xrotation Yrotation
                  JOINT lRing1
                  {
                    OFFSET 5.0395 -0.09 2.4971
                    CHANNELS 6 Xposition Yposition Zposition Zrotation Xrotation Yrotation
                    JOINT lRing2
                    {
                      OFFSET 3.7921 -1.552 1.4806
                      CHANNELS 6 Xposition Yposition Zposition Zrotation Xrotation Yrotation
                      JOINT lRing2_End
                      {
                        OFFSET 1.4655 -1.808 0.9609
                        CHANNELS 6 Xposition Yposition Zposition Zrotation Xrotation Yrotation
                        End Site
                        {
                          OFFSET 0.0147 -0.0181 0.0096
                        }
                      }
                    }
                  }
                  JOINT lPinky1
                  {
                    OFFSET 4.9141 -1.269 0.3591
                    CHANNELS 6 Xposition Yposition Zposition Zrotation Xrotation Yrotation
                    JOINT lPinky2
                    {
                      OFFSET 3.1477 -1.685 0.8462
                      CHANNELS 6 Xposition Yposition Zposition Zrotation Xrotation Yrotation
                      JOINT lPinky2_End
                      {
                        OFFSET 0.8055 -1.585 0.7955
                        CHANNELS 6 Xposition Yposition Zposition Zrotation Xrotation Yrotation
                        End Site
                        {
                          OFFSET 0.0081 -0.0158 0.008
                        }
                      }
                    }
                  }
                }
              }
            }
          }
        }
        JOINT rCollar
        {
          OFFSET -1.7069 20.075 5.0056
          CHANNELS 6 Xposition Yposition Zposition Zrotation Xrotation Yrotation
          JOINT rShldr
          {
            OFFSET -13.6458 -0.047 -4.849
            CHANNELS 6 Xposition Yposition Zposition Zrotation Xrotation Yrotation
            JOINT rForeArm
            {
              OFFSET -28.3255 -0.9759 2.2888
              CHANNELS 6 Xposition Yposition Zposition Zrotation Xrotation Yrotation
              JOINT rHand
              {
                OFFSET -22.1583 -0.53 10.8316
                CHANNELS 6 Xposition Yposition Zposition Zrotation Xrotation Yrotation
                JOINT rThumb1
                {
                  OFFSET -0.786 0.112 2.5817
                  CHANNELS 6 Xposition Yposition Zposition Zrotation Xrotation Yrotation
                  JOINT rThumb2
                  {
                    OFFSET -0.3601 -0.878 4.2331
                    CHANNELS 6 Xposition Yposition Zposition Zrotation Xrotation Yrotation
                    JOINT rThumb2_End
                    {
                      OFFSET -1.8127 -1.216 2.2227
                      CHANNELS 6 Xposition Yposition Zposition Zrotation Xrotation Yrotation
                      End Site
                      {
                        OFFSET -0.0181 -0.0122 0.0222
                      }
                    }
                  }
                }
                JOINT rCarpal1
                {
                  OFFSET -0.9571 1.114 1.7695
                  CHANNELS 6 Xposition Yposition Zposition Zrotation Xrotation Yrotation
                  JOINT rIndex1
                  {
                    OFFSET -4.1246 0.487 4.1451
                    CHANNELS 6 Xposition Yposition Zposition Zrotation Xrotation Yrotation
                    JOINT rIndex2
                    {
                      OFFSET -3.4052 -1.454 2.7682
                      CHANNELS 6 Xposition Yposition Zposition Zrotation Xrotation Yrotation
                      JOINT rIndex2_End
                      {
                        OFFSET -1.4531 -1.795 1.2713
                        CHANNELS 6 Xposition Yposition Zposition Zrotation Xrotation Yrotation
                        End Site
                        {
                          OFFSET -0.0145 -0.018 0.0127
                        }
                      }
                    }
                  }
                  JOINT rMid1
                  {
                    OFFSET -5.6954 0.21 2.1184
                    CHANNELS 6 Xposition Yposition Zposition Zrotation Xrotation Yrotation
                    JOINT rMid2
                    {
                      OFFSET -3.9766 -1.54 2.3863
                      CHANNELS 6 Xposition Yposition Zposition Zrotation Xrotation Yrotation
                      JOINT rMid2_End
                      {
                        OFFSET -1.4042 -1.926 1.125
                        CHANNELS 6 Xposition Yposition Zposition Zrotation Xrotation Yrotation
                        End Site
                        {
                          OFFSET -0.014 -0.0193 0.0113
                        }
                      }
                    }
                  }
                }
                JOINT rCarpal2
                {
                  OFFSET -2.0956 0.66 -0.3894
                  CHANNELS 6 Xposition Yposition Zposition Zrotation Xrotation Yrotation
                  JOINT rRing1
                  {
                    OFFSET -5.0395 -0.09 2.4971
                    CHANNELS 6 Xposition Yposition Zposition Zrotation Xrotation Yrotation
                    JOINT rRing2
                    {
                      OFFSET -3.7921 -1.552 1.4806
                      CHANNELS 6 Xposition Yposition Zposition Zrotation Xrotation Yrotation
                      JOINT rRing2_End
                      {
                        OFFSET -1.4655 -1.808 0.9609
                        CHANNELS 6 Xposition Yposition Zposition Zrotation Xrotation Yrotation
                        End Site
                        {
                          OFFSET -0.0147 -0.0181 0.0096
                        }
                      }
                    }
                  }
                  JOINT rPinky1
                  {
                    OFFSET -4.9141 -1.269 0.3592
                    CHANNELS 6 Xposition Yposition Zposition Zrotation Xrotation Yrotation
                    JOINT rPinky2
                    {
                      OFFSET -3.1477 -1.685 0.8462
                      CHANNELS 6 Xposition Yposition Zposition Zrotation Xrotation Yrotation
                      JOINT rPinky2_End
                      {
                        OFFSET -0.8055 -1.585 0.7955
                        CHANNELS 6 Xposition Yposition Zposition Zrotation Xrotation Yrotation
                        End Site
                        {
                          OFFSET -0.0081 -0.0158 0.008
                        }
                      }
                    }
                  }
                }
              }
            }
          }
        }
      }
    }
  }
  JOINT lThigh
  {
    OFFSET 8.367 -8.2066 0.5982
    CHANNELS 6 Xposition Yposition Zposition Zrotation Xrotation Yrotation
    JOINT lShin
    {
      OFFSET 2.1923 -43.463 -0.4932
      CHANNELS 6 Xposition Yposition Zposition Zrotation Xrotation Yrotation
      JOINT lFoot
      {
        OFFSET 0.7333 -45.8593 -2.6451
        CHANNELS 6 Xposition Yposition Zposition Zrotation Xrotation Yrotation
        End Site
        {
          OFFSET 2.6618 -4.2699 12.3931
        }
      }
    }
  }
  JOINT rThigh
  {
    OFFSET -8.367 -8.2066 0.5982
    CHANNELS 6 Xposition Yposition Zposition Zrotation Xrotation Yrotation
    JOINT rShin
    {
      OFFSET -2.1923 -43.463 -0.4931
      CHANNELS 6 Xposition Yposition Zposition Zrotation Xrotation Yrotation
      JOINT rFoot
      {
        OFFSET -0.7333 -45.8593 -2.6451
        CHANNELS 6 Xposition Yposition Zposition Zrotation Xrotation Yrotation
        End Site
        {
          OFFSET -2.6618 -4.2699 12.3931
        }
      }
    }
  }
}
MOTION
Frames:	4
Frame Time:	0.0333333
0 90.174 2.4664 0 0 -0 0 -1.186 -1.5018 0 0 -0 0 9.964 0.2134 0 0 -0 0 13.134 -3.2573 0 0 -0 0 20.686 -1.6905 0 0 -0 0 7.238 -0.1237 0 0 -0 1.7069 20.075 5.0056 0 0 -0 13.6458 -0.047 -4.849 1.66051 0.0835086 5.75766 28.3255 -0.9759 2.2888 -0.0175111 0.895433 15.7816 22.1583 -0.53 10.8316 7.95139e-016 -1.98785e-016 -0 0.786 0.112 2.5817 5.46658e-016 -3.97569e-016 -0 0.3601 -0.878 4.2331 5.96354e-016 0 -0 1.8127 -1.216 2.2227 3.97569e-016 1.98785e-016 9.54166e-015 0.9571 1.114 1.7695 1.49089e-016 -3.97569e-016 -0 4.1246 0.487 4.1451 6.4605e-016 0 3.18055e-015 3.4052 -1.454 2.7682 5.96354e-016 0 3.18055e-015 1.4531 -1.795 1.2713 8.94531e-016 -1.98785e-016 6.36111e-015 5.6954 0.21 2.1184 6.4605e-016 0 3.18055e-015 3.9766 -1.54 2.3863 5.96354e-016 0 3.18055e-015 1.4042 -1.926 1.125 8.94531e-016 -1.98785e-016 6.36111e-015 2.0956 0.66 -0.3894 1.49089e-016 -3.97569e-016 -0 5.0395 -0.09 2.4971 6.4605e-016 0 3.18055e-015 3.7921 -1.552 1.4806 5.96354e-016 0 3.18055e-015 1.4655 -1.808 0.9609 8.94531e-016 -1.98785e-016 6.36111e-015 4.9141 -1.269 0.3591 6.4605e-016 0 3.18055e-015 3.1477 -1.685 0.8462 5.96354e-016 0 3.18055e-015 0.8055 -1.585 0.7955 8.94531e-016 -1.98785e-016 6.36111e-015 -1.7069 20.075 5.0056 0 0 -0 -13.6458 -0.047 -4.849 -1.4496 0.0636048 -5.0245 -28.3255 -0.9759 2.2888 -1.74811 1.20616 -16.8394 -22.1583 -0.53 10.8316 -1.19271e-015 1.98785e-016 -3.18055e-015 -0.786 0.112 2.5817 -3.97569e-016 1.98785e-016 -3.18055e-015 -0.3601 -0.878 4.2331 -2.98177e-016 1.98785e-016 -3.18055e-015 -1.8127 -1.216 2.2227 -2.98177e-016 3.97569e-016 -0 -0.9571 1.114 1.7695 4.96962e-016 0 -6.36111e-015 -4.1246 0.487 4.1451 -9.93923e-017 3.97569e-016 -0 -3.4052 -1.454 2.7682 -8.94531e-016 5.96354e-016 -0 -1.4531 -1.795 1.2713 -3.97569e-016 3.97569e-016 -0 -5.6954 0.21 2.1184 -9.93923e-017 3.97569e-016 -0 -3.9766 -1.54 2.3863 -8.94531e-016 5.96354e-016 -0 -1.4042 -1.926 1.125 -3.97569e-016 3.97569e-016 -0 -2.0956 0.66 -0.3894 4.96962e-016 0 -6.36111e-015 -5.0395 -0.09 2.4971 -9.93923e-017 3.97569e-016 -0 -3.7921 -1.552 1.4806 -8.94531e-016 5.96354e-016 -0 -1.4655 -1.808 0.9609 -3.97569e-016 3.97569e-016 -0 -4.9141 -1.269 0.3592 -9.93923e-017 3.97569e-016 -0 -3.1477 -1.685 0.8462 -8.94531e-016 5.96354e-016 -0 -0.8055 -1.585 0.7955 -3.97569e-016 3.97569e-016 -0 8.367 -8.2066 0.5982 -4.66115 -1.03232 0.120763 2.1923 -43.463 -0.4932 0.00990601 1.55097 0.177175 0.7333 -45.8593 -2.6451 4.65196 -0.54114 -0.255042 -8.367 -8.2066 0.5982 4.66115 -1.03222 -0.120763 -2.1923 -43.463 -0.4931 -0.00990459 1.5509 -0.177176 -0.7333 -45.8593 -2.6451 -4.65196 -0.541171 0.255041 
8.00162e-006 21.4337 3.63966 0 0 -0 0 -1.186 -1.5018 0 0.199557 -0 0 9.964 0.2134 0 0.399115 -0 0 13.134 -3.2573 0 0.399115 -0 0 20.686 -1.6905 0 0.000111307 -0 0 7.238 -0.1237 0 1.98785e-016 -0 1.7069 20.075 5.0056 0 4.3861e-005 -0 13.6458 -0.047 -4.849 -71.3524 29.9238 1.33804 28.3255 -0.9759 2.2888 0.163014 -0.0984695 -16.2061 22.1583 -0.53 10.8316 4.65049 -1.82902 0.159157 0.786 0.112 2.5817 -2.05961e-007 6.69374e-007 4.77599e-007 0.3601 -0.878 4.2331 1.01972e-006 3.15142e-006 -5.83259e-006 1.8127 -1.216 2.2227 1.12732e-006 5.51057e-007 1.84357e-006 0.9571 1.114 1.7695 1.03368e-014 0 -3.18055e-015 4.1246 0.487 4.1451 -2.05961e-007 6.69374e-007 4.77599e-007 3.4052 -1.454 2.7682 1.01972e-006 3.15142e-006 -5.83259e-006 1.4531 -1.795 1.2713 1.12732e-006 5.51057e-007 1.84357e-006 5.6954 0.21 2.1184 -2.05961e-007 6.69374e-007 4.77599e-007 3.9766 -1.54 2.3863 1.01972e-006 3.15142e-006 -5.83259e-006 1.4042 -1.926 1.125 1.12732e-006 5.51057e-007 1.84357e-006 2.0956 0.66 -0.3894 1.03368e-014 0 -3.18055e-015 5.0395 -0.09 2.4971 -2.05961e-007 6.69374e-007 4.77599e-007 3.7921 -1.552 1.4806 1.01972e-006 3.15142e-006 -5.83259e-006 1.4655 -1.808 0.9609 1.12732e-006 5.51057e-007 1.84357e-006 4.9141 -1.269 0.3591 -2.05961e-007 6.69374e-007 4.77599e-007 3.1477 -1.685 0.8462 1.01972e-006 3.15142e-006 -5.83259e-006 0.8055 -1.585 0.7955 1.12732e-006 5.51057e-007 1.84357e-006 -1.7069 20.075 5.0056 0 4.3861e-005 -0 -13.6458 -0.047 -4.849 71.5923 29.9177 -0.728316 -28.3255 -0.9759 2.2888 -1.86776 -0.660738 15.1063 -22.1583 -0.53 10.8316 -9.30102 -3.68692 -0.548216 -0.786 0.112 2.5817 -3.22323e-007 1.77424e-006 2.78754e-006 -0.3601 -0.878 4.2331 -7.2253e-007 3.80465e-007 3.67466e-006 -1.8127 -1.216 2.2227 -3.67069e-006 1.82648e-006 7.43155e-007 -0.9571 1.114 1.7695 2.38542e-015 0 -4.77083e-015 -4.1246 0.487 4.1451 -3.22323e-007 1.77424e-006 2.78754e-006 -3.4052 -1.454 2.7682 -7.2253e-007 3.80465e-007 3.67466e-006 -1.4531 -1.795 1.2713 -3.67069e-006 1.82648e-006 7.43155e-007 -5.6954 0.21 2.1184 -3.22323e-007 1.77424e-006 2.78754e-006 -3.9766 -1.54 2.3863 -7.2253e-007 3.80465e-007 3.67466e-006 -1.4042 -1.926 1.125 -3.67069e-006 1.82648e-006 7.43155e-007 -2.0956 0.66 -0.3894 2.38542e-015 0 -4.77083e-015 -5.0395 -0.09 2.4971 -3.22323e-007 1.77424e-006 2.78754e-006 -3.7921 -1.552 1.4806 -7.2253e-007 3.80465e-007 3.67466e-006 -1.4655 -1.808 0.9609 -3.67069e-006 1.82648e-006 7.43155e-007 -4.9141 -1.269 0.3592 -3.22323e-007 1.77424e-006 2.78754e-006 -3.1477 -1.685 0.8462 -7.2253e-007 3.80465e-007 3.67466e-006 -0.8055 -1.585 0.7955 -3.67069e-006 1.82648e-006 7.43155e-007 8.367 -8.2066 0.5982 18.0686 -47.7993 23.4074 2.1923 -43.463 -0.4932 179.145 49.5904 -170.403 0.7333 -45.8593 -2.6451 1.04798 70.8821 5.12623 -8.367 -8.2066 0.5982 -18.0757 -47.7986 -23.4141 -2.1923 -43.463 -0.4931 -179.145 49.5905 170.403 -0.7333 -45.8593 -2.6451 -1.04792 70.8825 -5.1263 
8.00162e-006 21.4337 3.63966 0 0 -0 0 -1.186 -1.5018 0 0.199557 -0 0 9.964 0.2134 0 0.399115 -0 0 13.134 -3.2573 0 0.399115 -0 0 20.686 -1.6905 0 0.000111307 -0 0 7.238 -0.1237 0 1.98785e-016 -0 1.7069 20.075 5.0056 0 4.3861e-005 -0 13.6458 -0.047 -4.849 -71.3524 29.9238 1.33804 28.3255 -0.9759 2.2888 0.163014 -0.0984695 -16.2061 22.1583 -0.53 10.8316 4.65049 -1.82902 0.159157 0.786 0.112 2.5817 -2.05961e-007 6.69374e-007 4.77599e-007 0.3601 -0.878 4.2331 1.01972e-006 3.15142e-006 -5.83259e-006 1.8127 -1.216 2.2227 1.12732e-006 5.51057e-007 1.84357e-006 0.9571 1.114 1.7695 1.03368e-014 0 -3.18055e-015 4.1246 0.487 4.1451 -2.05961e-007 6.69374e-007 4.77599e-007 3.4052 -1.454 2.7682 1.01972e-006 3.15142e-006 -5.83259e-006 1.4531 -1.795 1.2713 1.12732e-006 5.51057e-007 1.84357e-006 5.6954 0.21 2.1184 -2.05961e-007 6.69374e-007 4.77599e-007 3.9766 -1.54 2.3863 1.01972e-006 3.15142e-006 -5.83259e-006 1.4042 -1.926 1.125 1.12732e-006 5.51057e-007 1.84357e-006 2.0956 0.66 -0.3894 1.03368e-014 0 -3.18055e-015 5.0395 -0.09 2.4971 -2.05961e-007 6.69374e-007 4.77599e-007 3.7921 -1.552 1.4806 1.01972e-006 3.15142e-006 -5.83259e-006 1.4655 -1.808 0.9609 1.12732e-006 5.51057e-007 1.84357e-006 4.9141 -1.269 0.3591 -2.05961e-007 6.69374e-007 4.77599e-007 3.1477 -1.685 0.8462 1.01972e-006 3.15142e-006 -5.83259e-006 0.8055 -1.585 0.7955 1.12732e-006 5.51057e-007 1.84357e-006 -1.7069 20.075 5.0056 0 4.3861e-005 -0 -13.6458 -0.047 -4.849 71.5923 29.9177 -0.728316 -28.3255 -0.9759 2.2888 -1.86776 -0.660738 15.1063 -22.1583 -0.53 10.8316 -9.30102 -3.68692 -0.548216 -0.786 0.112 2.5817 -3.22323e-007 1.77424e-006 2.78754e-006 -0.3601 -0.878 4.2331 -7.2253e-007 3.80465e-007 3.67466e-006 -1.8127 -1.216 2.2227 -3.67069e-006 1.82648e-006 7.43155e-007 -0.9571 1.114 1.7695 2.38542e-015 0 -4.77083e-015 -4.1246 0.487 4.1451 -3.22323e-007 1.77424e-006 2.78754e-006 -3.4052 -1.454 2.7682 -7.2253e-007 3.80465e-007 3.67466e-006 -1.4531 -1.795 1.2713 -3.67069e-006 1.82648e-006 7.43155e-007 -5.6954 0.21 2.1184 -3.22323e-007 1.77424e-006 2.78754e-006 -3.9766 -1.54 2.3863 -7.2253e-007 3.80465e-007 3.67466e-006 -1.4042 -1.926 1.125 -3.67069e-006 1.82648e-006 7.43155e-007 -2.0956 0.66 -0.3894 2.38542e-015 0 -4.77083e-015 -5.0395 -0.09 2.4971 -3.22323e-007 1.77424e-006 2.78754e-006 -3.7921 -1.552 1.4806 -7.2253e-007 3.80465e-007 3.67466e-006 -1.4655 -1.808 0.9609 -3.67069e-006 1.82648e-006 7.43155e-007 -4.9141 -1.269 0.3592 -3.22323e-007 1.77424e-006 2.78754e-006 -3.1477 -1.685 0.8462 -7.2253e-007 3.80465e-007 3.67466e-006 -0.8055 -1.585 0.7955 -3.67069e-006 1.82648e-006 7.43155e-007 8.367 -8.2066 0.5982 18.0686 -47.7993 23.4074 2.1923 -43.463 -0.4932 179.145 49.5905 -170.403 0.7333 -45.8593 -2.6451 1.04799 70.8821 5.12621 -8.367 -8.2066 0.5982 -18.0757 -47.7986 -23.4141 -2.1923 -43.463 -0.4931 -179.145 49.5905 170.403 -0.7333 -45.8593 -2.6451 -1.0479 70.8824 -5.12632 
8.35064e-006 21.4337 3.63966 0 0 -0 0 -1.186 -1.5018 0 0.199557 -0 0 9.964 0.2134 0 0.399115 -0 0 13.134 -3.2573 0 0.399115 -0 0 20.686 -1.6905 0 0.000114935 -0 0 7.238 -0.1237 0 0 -0 1.7069 20.075 5.0056 0 4.3861e-005 -0 13.6458 -0.047 -4.849 -71.3524 29.9238 1.33805 28.3255 -0.9759 2.2888 0.163038 -0.0984702 -16.2061 22.1583 -0.53 10.8316 4.65049 -1.82902 0.159163 0.786 0.112 2.5817 2.0092e-007 2.57977e-006 -2.1999e-006 0.3601 -0.878 4.2331 3.16929e-006 5.22932e-006 -8.96047e-006 1.8127 -1.216 2.2227 8.18804e-007 5.71647e-007 -3.63269e-006 0.9571 1.114 1.7695 -1.59028e-015 0 1.59028e-015 4.1246 0.487 4.1451 2.0092e-007 2.57977e-006 -2.1999e-006 3.4052 -1.454 2.7682 3.16929e-006 5.22932e-006 -8.96047e-006 1.4531 -1.795 1.2713 8.18804e-007 5.71647e-007 -3.63269e-006 5.6954 0.21 2.1184 2.0092e-007 2.57977e-006 -2.1999e-006 3.9766 -1.54 2.3863 3.16929e-006 5.22932e-006 -8.96047e-006 1.4042 -1.926 1.125 8.18804e-007 5.71647e-007 -3.63269e-006 2.0956 0.66 -0.3894 -1.59028e-015 0 1.59028e-015 5.0395 -0.09 2.4971 2.0092e-007 2.57977e-006 -2.1999e-006 3.7921 -1.552 1.4806 3.16929e-006 5.22932e-006 -8.96047e-006 1.4655 -1.808 0.9609 8.18804e-007 5.71647e-007 -3.63269e-006 4.9141 -1.269 0.3591 2.0092e-007 2.57977e-006 -2.1999e-006 3.1477 -1.685 0.8462 3.16929e-006 5.22932e-006 -8.96047e-006 0.8055 -1.585 0.7955 8.18804e-007 5.71647e-007 -3.63269e-006 -1.7069 20.075 5.0056 0 4.3861e-005 -0 -13.6458 -0.047 -4.849 71.5923 29.9177 -0.728319 -28.3255 -0.9759 2.2888 -1.86778 -0.660746 15.1063 -22.1583 -0.53 10.8316 -9.301 -3.68692 -0.548202 -0.786 0.112 2.5817 3.89425e-008 1.584e-006 9.50212e-007 -0.3601 -0.878 4.2331 -4.77083e-015 3.18055e-015 -7.95139e-015 -1.8127 -1.216 2.2227 -1.27222e-014 -6.36111e-015 -1.43125e-014 -0.9571 1.114 1.7695 -3.97569e-015 -3.18055e-015 -0 -4.1246 0.487 4.1451 3.89425e-008 1.584e-006 9.50212e-007 -3.4052 -1.454 2.7682 -2.06736e-014 3.18055e-015 -9.54166e-015 -1.4531 -1.795 1.2713 -8.74653e-015 3.18055e-015 -9.54166e-015 -5.6954 0.21 2.1184 3.89425e-008 1.584e-006 9.50212e-007 -3.9766 -1.54 2.3863 -2.06736e-014 3.18055e-015 -9.54166e-015 -1.4042 -1.926 1.125 -8.74653e-015 3.18055e-015 -9.54166e-015 -2.0956 0.66 -0.3894 -3.97569e-015 -3.18055e-015 -0 -5.0395 -0.09 2.4971 3.89425e-008 1.584e-006 9.50212e-007 -3.7921 -1.552 1.4806 -2.06736e-014 3.18055e-015 -9.54166e-015 -1.4655 -1.808 0.9609 -8.74653e-015 3.18055e-015 -9.54166e-015 -4.9141 -1.269 0.3592 3.89425e-008 1.584e-006 9.50212e-007 -3.1477 -1.685 0.8462 -2.06736e-014 3.18055e-015 -9.54166e-015 -0.8055 -1.585 0.7955 -8.74653e-015 3.18055e-015 -9.54166e-015 8.367 -8.2066 0.5982 18.0687 -47.7992 23.4075 2.1923 -43.463 -0.4932 179.145 49.5905 -170.403 0.7333 -45.8593 -2.6451 1.048 70.8822 5.12621 -8.367 -8.2066 0.5982 -18.0757 -47.7986 -23.4141 -2.1923 -43.463 -0.4931 -179.145 49.5905 170.403 -0.7333 -45.8593 -2.6451 -1.04793 70.8824 -5.1263 
